<svg xmlns="http://www.w3.org/2000/svg" version="1.1" xmlns:xlink="http://www.w3.org/1999/xlink" xmlns:svgjs="http://svgjs.dev/svgjs" width="2000" height="1500" viewBox="0 0 2000 1500"><rect width="2000" height="1500" fill="#010536"></rect><g transform="matrix(0.4444444444444444,0,0,0.4444444444444444,555.5555555555558,250)"><svg viewBox="0 0 320 360" data-background-color="#010536" preserveAspectRatio="xMidYMid meet" height="2250" width="2000" xmlns="http://www.w3.org/2000/svg" xmlns:xlink="http://www.w3.org/1999/xlink"><g id="tight-bounds" transform="matrix(1,0,0,1,-5.684341886080802e-14,0)"><svg viewBox="0 0 320 360" height="360" width="320"><g><svg></svg></g><g><svg viewBox="0 0 320 360" height="360" width="320"><g><path xmlns="http://www.w3.org/2000/svg" d="M85.508 32.884c0-1.117 0.558-2.233 1.675-2.233 1.117 0 2.233 0.558 2.234 2.233 0.558 0 1.675 0 2.233-0.558 2.233 0 4.467-0.558 6.141 0 1.675 0.558 2.792 0.558 4.467 1.117 1.675 0.558 2.792 0 3.908-0.559 2.233-0.558 3.908-1.675 6.141-2.233 1.117-0.558 1.675-0.558 2.792-0.558 1.117-0.558 2.233-0.558 3.908-1.117 2.792-0.558 5.583-1.117 7.817-2.233 2.233-1.117 4.467-1.117 6.699-1.675 1.117 0 1.675-0.558 2.792-1.117 0.558 0 0.558-0.558 1.116-1.116 1.117-0.558 1.675-1.117 2.792-0.559 0.558 0.558 1.675 0.558 2.233 0h0.559c3.35 0 6.7-0.558 10.608 0 0.558 0 1.117 0 1.116 0 1.675-1.117 3.908-1.117 6.142-1.116 0.558 0 1.675 0 2.233 0h0.558c2.233 0 4.467 0 6.142 0.558 1.675 0 2.792 0.558 4.466 1.117 1.675 0 2.792 0 4.467 0.558 1.117 0 2.233 0 3.35 0 0.558 0 1.117 0 1.116 0 2.233 0.558 4.467 0.558 6.7 0.558 1.675 0.558 3.35 1.117 5.583 1.117 0.558 0 1.117 0 1.675 0 0.558 0 1.117 0.558 1.675 0.558l0.558 0.559c2.233 0 3.908 1.117 6.142 1.116 0.558 0 1.675 0 2.233 0.559 1.675 1.117 3.908 1.675 6.141 1.675 1.117 0 1.675 0.558 2.234 1.116 1.675 0.558 2.792 1.117 4.466 1.675 1.117 0.558 2.233 0 3.35 0.558 1.675 0.558 3.908 1.117 5.583 2.792 1.117 1.117 2.233 1.117 3.908 2.233 0.558 0 1.117 0.558 1.675 1.117 1.675 1.117 3.35 2.233 5.025 2.791 0.558 0 1.117 0.558 1.675 0.559 1.675 1.117 3.35 2.792 5.583 3.908 1.117 0.558 1.675 1.117 2.792 1.675h0.558c1.675 1.675 3.908 2.792 5.583 4.466 1.675 1.675 2.792 2.792 5.025 3.909 0 0 0 0 0 0.558 0.558 1.117 1.117 1.675 2.233 2.233 1.117 0.558 1.675 1.117 2.234 1.675 1.675 1.117 3.35 2.233 4.466 3.35 0.558 0.558 1.117 1.117 2.233 2.233 0.558 0.558 1.117 1.117 1.675 1.117 2.233 0.558 3.35 2.233 5.025 3.908 1.117 1.117 2.792 2.792 3.908 3.908 0.558 0.558 1.117 1.675 1.675 2.792 1.117 3.35 2.792 6.7 4.467 9.491 0 0 0 0.558 0.558 1.117v0.558c1.117 1.117 1.675 2.792 2.792 3.908 0.558 0.558 0.558 1.117 1.116 1.675 1.117 1.675 1.675 3.908 2.792 5.583 1.675 2.792 2.792 5.583 3.908 8.375v0.558c0.558 1.117 1.117 2.233 1.675 3.908 0 1.117 1.117 2.233 1.675 3.909 0.558 2.792 2.233 5.583 2.791 8.933 0 0.558 0.558 1.117 0.559 2.233 0.558 1.675 1.117 3.35 1.675 5.025 0 0.558 0.558 1.117 1.116 1.675 1.117 1.117 1.117 2.233 1.117 3.35-0.558 2.233 0 4.467 0.558 6.699 0 0.558 0 1.117 0 2.234 0.558 2.233 1.117 5.025 1.117 7.258 0 0.558 0 1.675 0 2.233 0 1.675 0.558 3.35 1.675 5.025 0 0.558 0.558 0.558 0.558 0.558 0.558 0.558 1.117 1.675 1.675 2.233 0.558 0.558 0.558 0.558 1.117 1.117 1.117 1.117 1.675 2.233 1.675 3.908 0 0.558-0.558 1.675-0.559 2.233 0 0.558 0 1.675 0.559 2.234 0.558 0.558 0.558 1.117 0.558 1.675 0 0.558-0.558 1.117-1.117 1.116v0c-0.558 1.675-2.792 2.233-3.35 3.908-0.558 2.233-1.117 4.467-1.674 6.7-0.558 1.675-0.558 2.792-0.559 4.467 0 1.675-0.558 2.792-0.558 4.466-0.558 2.233-1.117 4.467-1.675 6.7 0 1.117-0.558 2.233-0.558 3.35 0.558 0.558 1.117 1.117 1.675 1.116 1.117 1.117 2.233 2.233 3.349 3.35 0.558 0.558 0.558 1.117 0 1.117-0.558 0.558-1.117 0.558-1.674 0.558-0.558-0.558-1.675-1.117-2.234-1.116-0.558-0.558-1.675-1.117-2.791-0.559 0 1.117-0.558 2.233-0.559 2.792-0.558 1.117-1.117 2.792-1.116 3.908-0.558 2.233-1.675 3.908-2.233 6.142-1.117 2.792-2.233 5.025-3.35 7.258-0.558 1.117-1.117 2.233-1.675 3.35v0c0 1.675-1.675 3.35-2.234 5.024-1.117 2.233-2.233 4.467-3.349 7.258-0.558 1.117-1.117 2.233-1.675 2.792-1.117 2.792-2.233 5.025-3.909 7.258-1.117 1.675-2.233 2.792-3.349 3.35-1.117 1.117-2.233 2.233-3.35 3.35-0.558 0.558-1.117 1.117-1.675 1.675-0.558 0.558-0.558 0.558-1.117 1.116-1.117 1.675-2.792 2.792-3.908 4.467-1.117 1.117-1.675 2.233-3.35 3.35-1.117 1.117-2.233 2.792-3.908 3.35-0.558 0.558-1.117 1.675-1.675 2.233-0.558 0.558-1.117 1.675-1.675 2.233 0 1.117 0.558 2.233 0.558 2.792 0 1.675-1.675 2.233-2.791 1.116-1.675-1.117-1.675-1.117-3.35 0-1.675 1.117-3.35 2.792-5.583 3.35-0.558 0-0.558 0.558-1.117 0.559-1.117 0.558-1.675 1.675-2.792 2.233-1.117 1.117-2.792 1.675-3.908 2.791-0.558 0.558-1.117 0.558-1.675 1.117-1.675 1.117-3.35 1.675-5.024 3.35-0.558 0.558-1.117 0.558-1.675 1.117 0 0.558 0 0.558 0 1.116 0 1.117-1.117 2.233-2.792 1.675-1.675-0.558-2.792 0-4.466 0-1.675 0.558-3.35 1.675-5.025 2.233-0.558 0-1.117 0.558-1.675 1.117-1.675 1.117-3.35 1.675-5.025 2.233-1.117 0-2.233 1.117-3.35 1.117-0.558 0-1.117 0.558-1.675 0.558h-0.558c-2.233 1.675-4.467 2.792-6.7 4.467-0.558 0-0.558 0.558-1.117 1.116-0.558 1.117-1.117 1.675-2.233 1.675-2.792 0-3.908 2.233-3.35 4.467 0 0.558 0.558 1.117 0.559 1.675 0.558 1.117 0 2.233-0.559 2.791-0.558 0.558-2.233 0.558-2.791-0.558-1.117-1.117-1.675-2.233-2.234-3.908-0.558-1.117-1.675-2.233-2.791-2.792-1.117-0.558-2.233-0.558-3.35 0-0.558 0-0.558 0.558-1.117 0.558-1.117 1.117-2.792 1.675-4.466 1.117-0.558 0-1.675 0-1.675 0.558-0.558 0.558-0.558 1.675 0 2.234 1.117 1.117 0.558 2.233 0.558 3.908 0 2.233-1.675 3.35-3.908 2.233-0.558-0.558-1.117-0.558-1.675-1.117-0.558 0-0.558-0.558-0.558-1.116-0.558-0.558-0.558-1.675-1.117-2.792-1.117 0.558-2.233 0.558-3.35 1.117-0.558 0-1.117 0.558-1.675 0.558-1.675 0-2.233 0-2.791-1.675-0.558-1.675-1.675-1.675-2.792-2.233-2.233-0.558-5.025-0.558-7.258-1.675h-0.558c-2.233-1.675-4.467-1.675-7.258-1.675-1.675 0-3.35 0.558-5.025 0.558-1.675 0-2.792 0.558-3.908 1.675-0.558 0.558-1.117 1.117-1.675 1.117-0.558-0.558-0.558-1.117-1.117-1.675v-0.558c0-0.558-0.558-1.117-1.116-0.559-1.117 0.558-2.233-0.558-3.35-1.116-0.558-0.558-1.675-1.675-1.675-2.792-0.558-0.558-1.117-1.117-1.675-1.116-1.117 0-2.792-0.558-3.908-0.559-0.558 0-1.117 0-1.117-0.558-0.558-0.558-1.117-0.558-2.233-0.558-0.558 0-0.558-0.558-1.117-0.559 1.117 1.117 1.675 2.233 2.233 3.35 0 0.558 0.558 0.558 0.559 1.117 0.558 1.117 0 1.675-1.675 1.675-1.117 0-1.117 0-1.675 0.558 0 1.117 0 1.675 0 2.792 0 0.558 0 1.117-1.117 1.675 0 0-0.558 0-0.558 0.558-0.558 0.558-0.558 1.117 0 1.675 1.675 1.117 2.792 1.675 4.466 2.233 1.675 0 1.675 1.117 2.234 2.233 0.558 1.117 0 1.675-0.559 2.792-1.117 1.117-2.233 2.233-3.35 3.35-1.675 0.558-2.792 2.233-4.466 2.233-1.117 0-2.233-0.558-2.792-1.675-0.558-2.792-0.558-5.025 0.559-7.816 0-0.558 0.558-1.117 0-1.675-5.025 0-5.025-1.117-5.025-1.675 0-1.117 0.558-1.675 0.558-2.792 0.558-1.117 0-1.675-1.675-2.233-0.558 0-1.117 0-1.675 0-0.558 0-0.558-0.558-1.675-0.558 1.117-0.558 1.675-0.558 2.792-1.117-0.558-2.233-1.117-3.908-2.792-5.025-0.558-0.558-1.117-1.117-1.116-2.233 0-1.675-1.117-2.792-1.675-3.908-1.117-1.675-3.35-2.233-5.025-2.233-1.675-0.558-2.792-0.558-4.467-1.117-1.675-0.558-3.35-2.233-5.024-2.792-0.558-0.558-1.117-1.117-2.234-1.674-2.233-1.117-3.908-2.792-5.583-4.467-1.117-0.558-1.675-1.675-2.791-2.233-1.117-1.117-1.675-2.233-2.792-2.792-1.117-1.117-2.233-2.233-3.908-3.35-1.675-1.117-2.792-2.792-4.467-4.466-1.117-1.675-2.792-2.792-4.466-3.908-0.558 0-1.117 0-1.675 0-0.558 0-1.117 0.558-1.675 0.558-1.675 0.558-2.792 1.675-4.467 2.233 0.558-0.558 0.558-0.558 0-1.675-0.558-0.558-1.117-1.117-1.674-1.116-1.117 0-2.233 0-3.35 0-2.233 0-4.467 0.558-6.7 0.558-1.675 0-3.908 0.558-5.583 1.117 0.558 1.117 0.558 1.675 1.116 2.791-1.117 0.558-2.233 0.558-3.35 0.558-0.558 0-1.675 0.558-2.233 1.117-0.558 0-0.558 0.558-1.116 0-1.117-0.558-2.233 0-3.35 0.558h-0.559c0 0 0-0.558 0.559-0.558 0.558-0.558 1.117-1.117 1.675-1.675 0.558-0.558 1.117-0.558 2.233-1.117-0.558-0.558-0.558-1.117-0.558-1.116-0.558-0.558-1.117-0.558-1.675 0-0.558 0.558-1.117 1.117-1.675 1.675-0.558 0.558-1.117 0.558-1.675 0-0.558-0.558-0.558-1.117 0-1.675 0-0.558 0.558-1.117 1.116-1.675 0.558-0.558 0.558-1.117 1.117-1.675-1.117-1.117-1.675-2.233-2.792-2.792-1.675-1.117-3.35-2.792-4.466-4.466-1.117-2.233-2.792-3.908-5.025-5.025-0.558-0.558-1.117-1.117-1.675-1.675-0.558-0.558-0.558-0.558-1.116-1.117-1.675 0.558-2.792 1.675-4.467 2.234-0.558 0-0.558 0.558-1.117 1.116-0.558 1.117-1.675 1.117-2.791 1.117-0.558 0-1.117-0.558-0.558-1.117 0.558-1.117 1.117-2.233 2.791-1.675 0 0 0.558 0 0.558-0.558 1.117-1.117 2.233-2.792 3.909-3.908-0.558-1.675-1.675-2.792-2.234-3.908-0.558-0.558-0.558-1.117-0.558-2.234 0-0.558 0-0.558-0.558-1.116 0 0-0.558 0-1.117 0.558-0.558 0.558-1.675 1.117-2.791 0 0-0.558 0-1.117 0.558-1.675l0.558-0.558c1.675-0.558 1.675-2.233 1.675-3.908v-0.559c-0.558-1.117-0.558-1.675 0.558-2.791 1.675-1.117 3.35-3.35 3.909-5.025 0.558-1.117 1.675-1.675 2.791-2.792 1.117-1.117 2.233-2.233 2.792-3.908h0.558c2.233 0.558 2.792-1.117 3.908-2.791 0-0.558 0-1.117 0.559-1.117 1.117-1.117 1.117-2.233 0.558-3.908 0-0.558-0.558-1.675-0.558-2.233 0-0.558 0-0.558-0.559-1.117-1.675-1.117-1.675-2.233 0-3.35 1.117-0.558 1.117-1.675 1.675-2.233 0.558-1.117 0.558-2.233 0.559-3.908-0.558-1.675-0.558-3.908-1.117-5.583-0.558-2.233-1.117-5.025-1.675-7.259 0-0.558 0-0.558 0-1.116 0-1.675 0-2.792-0.558-4.467-0.558-0.558-0.558-1.675-0.559-2.233-0.558-1.675-1.117-2.792-2.791-3.35-1.675-1.117-3.908-1.675-5.583-2.791-0.558-0.558-1.117 0-1.675 0.558-0.558 1.117-1.675 2.233-2.234 3.35-0.558 0.558-1.117 1.675-1.675 2.791-1.117 1.117-3.35 2.233-5.024 0.559-0.558-1.117-1.117-1.675 0-2.792 1.117-1.675 2.233-3.35 3.908-4.466 0.558-0.558 1.117-1.675 1.675-2.234 0.558-1.117 0.558-2.233 0.558-3.35-0.558-2.233-1.117-4.467-1.117-7.258 0-2.792 0-5.025 0.559-7.816 0.558-1.117 0.558-2.792 1.116-3.908 0-0.558 0.558-1.675 1.117-2.233 1.117-1.117 2.233-2.233 2.792-3.909 0.558-1.675 1.675-3.35 1.675-5.024 0-0.558 0.558-1.117 0.558-1.675 0-0.558 0.558-1.675 0.558-2.234-0.558-1.675 0-2.792 0.558-3.908 0.558-1.117 1.117-2.792 1.675-3.908 1.117-2.233 1.117-5.025 3.35-7.258 0.558-1.117 1.117-2.233 1.675-3.35 0.558-2.233 1.675-3.908 2.792-5.583 0.558-0.558 0.558-0.558 0.558-1.117 0.558-1.675 1.675-3.35 2.792-5.025 1.117-1.675 1.117-3.35 1.675-5.024 0-0.558 0-1.117 0.558-1.675 1.675-1.675 1.117-3.908 0.558-6.142-1.117-2.792-1.675-5.583-1.116-8.374 0-0.558 0-1.117 0.558-1.117 0.558-1.117 0.558-1.675 1.117-2.792v-0.558c1.117-1.117 2.233-2.792 3.908-3.35 2.233-1.117 4.467-1.675 7.258-2.233 2.233 0 4.467-1.117 6.141-3.35 0-0.558 0.558-0.558 1.117-1.117l0.558-0.558c0.558-1.117 1.117-1.675 1.675-2.233 1.117-1.117 2.233-2.792 3.35-3.908 1.117-1.117 2.233-2.792 3.908-4.467l0.559-0.558c1.117-1.117 2.233-2.233 3.349-2.792 1.117-1.117 2.233-2.233 3.35-3.35 1.117-1.117 1.675-2.233 2.792-3.35 1.117-0.558 2.233-1.675 3.35-2.791 1.117-1.117 2.233-2.233 2.791-2.792 1.117-1.117 2.792-2.233 3.909-2.791 1.117-0.558 2.233-1.117 2.791-2.792 0.558-1.675 1.117-2.792 1.675-4.466 0-1.117 0.558-2.233 1.117-3.35 0.558 0 1.117 0 2.233-0.558-0.558-0.558-1.117-0.558-1.117-1.117 0-0.558 0.558-1.117 0.559-1.117 0-0.558 0.558-1.117 0.558-1.675 0 0 0.558 0 0.558-0.558 0 0 0.558 0 0.559-0.558-1.117 0.558-1.675 0-2.234-0.559 0.558 0.558 1.117 0.558 2.234 1.117 0 0 0.558 0 0.558-0.558 0-0.558 0-1.117 0-1.117 0 0-0.558 0-1.117 0-0.558 0-1.117 0.558-1.675 0.558zM182.097 295.292c0-0.558-0.558-0.558-0.559-1.117-0.558-1.117 0-1.675 0.559-2.233 0.558-0.558 1.117-0.558 2.233-0.558 1.117 0.558 1.675 1.117 1.675 2.233 0 0.558 0 1.675 0 2.233 0.558 2.233 0.558 2.233 2.791 2.233 1.117 0 2.233 0 3.35 0 2.233-0.558 4.467-1.675 6.7-2.233 2.233-0.558 4.467-1.117 6.7-1.675 0.558 0 1.117 0 2.233 0 2.233 0.558 3.908 0 5.583-1.117 0.558-0.558 1.675-0.558 2.233-1.116 1.117-0.558 2.233-0.558 3.35-1.117 2.792-1.675 5.583-2.792 7.817-4.466 1.675-1.117 3.35-2.233 5.024-3.35 1.675-1.117 3.35-2.233 5.025-3.35 1.117-0.558 2.792-1.675 3.908-2.792 2.233-1.675 3.908-3.35 6.142-4.466 1.117-0.558 1.675-1.117 2.233-1.675 1.117-0.558 1.675-1.675 2.792-2.233 0.558-0.558 1.117-1.117 2.233-1.675 0.558-0.558 0.558-0.558 0.558-1.117 1.675-1.117 3.35-3.35 4.467-5.025 1.117-1.117 2.233-2.233 3.35-3.908 1.675-1.675 2.792-3.908 4.466-6.141 1.117-1.117 2.233-2.792 2.792-3.909 1.117-2.233 2.233-4.467 3.908-6.141v-0.558c1.117-2.233 2.233-4.467 3.35-6.7 1.675-2.792 2.792-6.141 4.466-8.933 0.558-1.117 1.117-2.233 1.117-3.35 1.117-2.233 1.675-4.467 2.233-6.7 0-0.558 0-0.558 0.559-1.116 1.675-3.35 2.792-6.7 3.349-10.608 0.558-2.233 1.117-4.467 1.675-6.7 1.117-3.35 1.117-6.141 1.675-9.491 0.558-2.233 0.558-5.025 0.559-7.258 0.558-3.35 0.558-7.258 0-10.608 0-2.792-0.558-6.141-0.559-8.933 0-2.792-0.558-5.025-1.116-7.817-0.558-2.792-1.117-5.025-1.675-7.816-1.117-2.233-1.675-4.467-2.234-7.258-0.558-2.233-1.675-3.908-1.674-6.142 0-1.675-0.558-3.35-2.234-3.908-1.675-0.558-2.792-1.117-4.466-2.233-3.35-2.233-5.025-5.025-4.467-8.375 0-1.675 0.558-3.908 1.117-5.583 0.558-1.675 1.117-3.35 0-4.467-0.558-1.675-1.675-2.792-2.233-3.908-1.117-1.675-1.675-2.792-2.792-3.908-1.117-2.233-2.233-4.467-3.908-6.141-2.233-2.792-3.908-5.583-6.7-7.817l-0.558-0.558c-1.675-2.233-3.35-4.467-5.583-6.142-1.117-1.117-2.233-2.233-3.35-2.791-0.558-0.558-1.117-1.117-2.233-1.675-1.675-1.117-3.35-1.675-4.467-2.792-1.675-1.675-3.908-2.792-5.583-3.908 0 0-0.558 0-0.558-0.558-2.233-1.117-3.908-1.675-6.142-2.792-2.233-1.117-4.467-1.675-6.7-1.675-0.558 0-0.558 0-1.116 0-0.558-0.558-1.675-0.558-2.233-0.558-0.558 0-0.558 0-1.117 0-1.117-0.558-2.792 0-3.908 0-2.233 0.558-4.467 0.558-6.7-0.558-2.792-1.117-5.025-2.233-7.258-3.35-1.675-1.117-2.792-2.233-4.467-3.35-3.35-2.792-6.7-6.141-10.608-8.933 0.558-2.792-0.558-3.35-2.791-3.35-1.117 0-2.233 0.558-3.35 1.117-0.558 0.558-0.558 0.558-1.117 1.116-1.675 1.117-2.792 2.792-4.466 3.909-2.792 1.675-3.908 1.117-6.142 0-0.558-0.558-1.117-1.117-1.675-1.675-1.117-1.117-2.233-2.792-2.791-3.909-1.117-2.233-3.35-2.233-5.583-2.233-1.117 0-2.792 0.558-3.908 0.558-2.233 0-4.467 1.117-5.584 2.792-1.117 1.675-2.233 3.35-3.908 5.025-0.558 0.558-1.675 1.117-2.233 2.233-1.117 1.117-2.233 1.117-3.35 0-0.558-0.558-1.117-0.558-1.675-1.117-0.558 0.558-1.117 1.117-1.117 1.675-0.558 1.117-1.117 2.233-1.674 3.909-0.558 1.675-1.675 3.35-2.792 4.466-0.558 0.558-0.558 0.558-1.117 1.117-0.558 1.117-2.233 1.675-3.35 1.675-1.117 1.117-2.233 2.792-2.791 3.908-0.558 1.117-1.117 2.233-1.675 3.908-0.558 0.558-0.558 1.675-1.117 2.233-0.558 1.117-0.558 1.675-0.558 2.792 0.558 1.675-0.558 2.233-2.233 2.791-1.117 0-1.117 0-1.675 1.117 0 1.675 0.558 2.792 1.116 4.467 0.558 0.558 1.117 1.675 1.117 2.233 0 1.117 0.558 1.675 1.675 2.233 0.558 0.558 1.117 1.117 1.675 1.117 0.558 0 0.558 0.558 1.117 0.558 0.558 0.558 1.117 0 1.116-0.558 0.558-1.675 1.117-3.35 1.117-5.025 0.558-2.233 0.558-3.908 1.116-6.142 0.558-1.117 1.117-1.675 1.675-2.233 0 0 0.558 0 1.117 0v0.559c-0.558 2.792-1.675 6.141-2.233 8.933-0.558 1.117-0.558 2.233-1.117 3.349 0 0.558-0.558 1.117-1.116 1.117-1.117 0.558-2.233 1.117-3.35 1.117-0.558 0-1.117 0-1.675 0-1.117-0.558-2.233-1.675-3.35-2.234-0.558-0.558-1.117-1.117-1.675-1.674-0.558-1.117-1.117-2.233-1.675-3.35-0.558-1.117-1.117-1.675-2.233-2.234-0.558-0.558-1.117-0.558-1.675-1.116-1.117-1.117-2.233-1.675-3.908-1.675-0.558 0-1.675 0-2.234 0-0.558 0-1.675 0.558-2.233 1.116-1.117 0.558-1.675 0.558-2.791 0-2.792-1.117-5.583-0.558-8.375 0.559-1.117 0.558-2.233 1.117-3.35 1.116-2.792 0-5.025 0-7.816 0-2.792 0-5.025-0.558-7.817-1.116-1.117 0-2.233 0-3.35 0-2.233 0.558-2.792 2.233-2.233 4.466 0.558 2.233 1.117 5.025 1.117 7.258 0 1.675 0 3.35 0 5.025 0 1.117 0 1.675 0 2.792 0 1.675-0.558 3.35-0.559 5.025-0.558 3.35-2.233 6.141-4.466 8.374-1.675 1.675-3.908 3.35-6.142 3.908-1.117 0.558-2.233 1.117-3.908 1.675-2.792 1.117-5.025 3.35-6.7 6.142-0.558 1.117-1.117 2.233-1.674 3.35-1.117 1.675-1.675 2.792-2.792 4.466-0.558 1.117-1.675 2.233-2.233 3.35-0.558 1.117-1.675 1.675-1.675 2.792-1.117 2.233-1.675 4.467-2.792 6.699-0.558 1.117-0.558 2.792-1.116 3.909-1.117 2.233-1.117 4.467-1.117 7.258 0 0.558 0 1.117 0 2.233 0 2.792-0.558 6.141-0.558 8.933 0 2.792 0 5.583 0.558 8.375 0 1.117 0 2.792 0 3.908 0 2.233 0.558 5.025 0.558 7.258 0 2.233 0 5.025 1.117 7.258v0.558c0.558 2.233 0.558 4.467 1.116 6.7 0 0.558 0 1.117 0.559 1.675 1.117 3.35 1.675 6.141 2.791 9.491 0.558 2.233 1.675 4.467 2.234 6.7 0.558 2.233 2.792 4.467 3.349 7.258v0c1.675 3.35 3.35 6.7 5.584 10.05 0.558 1.117 1.675 2.233 2.233 3.35 1.117 1.675 1.675 3.35 2.791 4.466 0.558 1.117 1.675 2.233 2.234 2.792 0.558 1.117 1.117 2.233 2.233 3.35 1.117 1.117 2.233 2.792 3.35 3.908 1.675 2.792 3.908 5.025 6.141 6.7 1.117 1.117 2.233 1.675 3.35 2.791 0.558 0.558 1.117 0.558 1.117 1.117 0.558 0.558 1.117 1.117 2.233 1.675 4.467 2.233 7.816 5.583 11.725 8.933 1.675 1.675 3.35 3.35 5.583 4.466 2.233 1.675 3.908 3.35 6.7 3.908 0 0 0.558 0 0.558 0.559 1.117 1.117 2.792 1.675 3.908 2.233 2.233 1.117 5.025 2.233 7.258 3.35 0.558 0.558 1.675 0.558 2.233 1.117 1.675 0.558 3.35 1.117 5.025 1.674 1.675 0.558 2.792 1.117 4.467 1.117h0.558c1.117 0.558 1.675 0.558 2.792 0 0.558 0 1.117 0 1.116 0.558 0 0.558 0.558 0.558 1.117 0.559 0.558 0 1.117 0 2.233 0 0.558-0.558 0.558-1.117 1.117-2.234 0.558 0.558 1.117 0.558 1.116 0.559 0.558 1.117 1.675 1.117 2.792 1.116h0.558c1.117 0 1.675 0 2.233-0.558 0-0.558 1.117-0.558 1.675-0.558 1.675 0.558 3.35 0.558 5.025 1.116 1.117 0.558 2.792 0.558 3.35-0.558 0.558-0.558 1.117-1.117 2.233-0.558 1.117 0.558 1.675 0.558 2.792 0 0.558 0 1.117 0 1.117 0 1.675 0.558 2.792 0.558 4.466 1.116 2.233 0.558 2.233 0.558 3.908-1.116 0.558-0.558 1.675-0.558 2.233 0 0.558 1.117 0.558 1.675 0.559 2.791 0.558 0 0.558 0 1.116-0.558 0-1.117 0.558-1.117 1.675-1.675 0.558 0.558 0.558 0.558 1.117 0.558 1.117 1.117 1.675 1.117 2.233-0.558 0-0.558 0-1.117 0.559-1.116 0.558 0 1.117 0.558 1.116 0.558 0.558 1.117 1.675 1.675 2.233 2.791 1.117 1.117 2.792 1.117 3.35 0 0.558-0.558 1.117-0.558 1.675-0.558 0-0.558 0-1.117 0-1.675 1.675 1.117 1.117 1.117 0.559 1.117zM89.417 34.559c1.675 0.558 2.792 0.558 3.349-0.558-1.117 0.558-2.233-0.558-3.349 0.558z" fill="#fbfbf8" fill-rule="nonzero" stroke="none" stroke-width="1" stroke-linecap="butt" stroke-linejoin="miter" stroke-miterlimit="10" stroke-dasharray="" stroke-dashoffset="0" font-family="none" font-weight="none" font-size="none" text-anchor="none" style="mix-blend-mode: normal" data-fill-palette-color="tertiary"></path></g><g transform="matrix(1,0,0,1,64,152.56840713813614)"><svg viewBox="0 0 192 54.863185723727696" height="54.863185723727696" width="192"><g><svg viewBox="0 0 192 54.863185723727696" height="54.863185723727696" width="192"><g><svg viewBox="0 0 192 54.863185723727696" height="54.863185723727696" width="192"><g><svg viewBox="0 0 192 54.863185723727696" height="54.863185723727696" width="192"><g id="textblocktransform"><svg viewBox="0 0 192 54.863185723727696" height="54.863185723727696" width="192" id="textblock"><g><svg viewBox="0 0 192 54.863185723727696" height="54.863185723727696" width="192"><g transform="matrix(1,0,0,1,0,0)"><svg width="192" viewBox="-3.2699999809265137 -50.38999938964844 221.61000061035156 63.33000183105469" height="54.863185723727696" data-palette-color="#fbfbf8"><path d="M68.46 10.94L68.46 10.94Q68.46 11.47 68.21 11.96L68.21 11.96Q67.24 12.5 66.19 12.72 65.14 12.94 64.11 12.94L64.11 12.94Q63.62 12.94 63.06 12.92 62.5 12.89 62.06 12.79L62.06 12.79Q61.91 12.74 61.72 12.6 61.52 12.45 61.33 12.45L61.33 12.45Q60.84 12.45 60.4 12.62 59.96 12.79 59.47 12.79L59.47 12.79Q59.23 12.79 59.01 12.65 58.79 12.5 58.54 12.45L58.54 12.45Q58.2 12.35 57.86 12.4 57.52 12.45 57.13 12.45L57.13 12.45Q56.59 12.45 56.18 12.3 55.76 12.16 55.42 11.77L55.42 11.77Q54.2 11.62 53.03 11.3 51.86 10.99 50.68 10.62 49.51 10.25 48.34 9.94 47.17 9.62 45.95 9.52L45.95 9.52Q45.65 9.18 45.26 9.01 44.87 8.84 44.68 8.45L44.68 8.45Q44.43 8.45 44.34 8.52 44.24 8.59 43.99 8.59L43.99 8.59Q43.16 7.91 42.21 7.42 41.26 6.93 40.26 6.49 39.26 6.05 38.31 5.59 37.35 5.13 36.52 4.39L36.52 4.39 36.28 4.39Q35.89 4.44 35.62 4.22 35.35 4 34.96 4L34.96 4Q34.72 4 34.57 4.05L34.57 4.05Q34.42 3.66 34.13 3.42 33.84 3.17 33.52 2.95 33.2 2.73 32.91 2.51 32.62 2.29 32.47 1.95L32.47 1.95Q31.25 1.51 30.1 0.9 28.96 0.29 28.08-0.68L28.08-0.68Q27.1-0.78 26.46-1.29 25.83-1.81 25.29-2.59L25.29-2.59Q24.12-2.98 23.14-3.61 22.17-4.25 21.22-4.93 20.26-5.62 19.21-6.18 18.16-6.74 16.85-6.98L16.85-6.98Q16.8-7.32 16.55-7.5 16.31-7.67 15.99-7.79 15.67-7.91 15.38-8.01 15.09-8.11 14.94-8.4L14.94-8.4Q14.79-8.4 14.65-8.42 14.5-8.45 14.36-8.45L14.36-8.45Q14.21-8.45 14.04-8.42 13.87-8.4 13.72-8.4L13.72-8.4 13.77-8.54Q13.77-8.74 13.65-8.79 13.53-8.84 13.33-8.89 13.13-8.94 12.99-9.03 12.84-9.13 12.84-9.47L12.84-9.47 12.7-9.47Q12.16-9.47 11.72-9.67 11.28-9.86 10.74-9.96L10.74-9.96Q10.64-9.42 10.64-8.94L10.64-8.94 10.64-8.06Q10.64-5.86 11.13-3.44 11.62-1.03 12.65 0.88L12.65 0.88Q13.67 1.27 14.4 1.9 15.14 2.54 15.82 3.37L15.82 3.37Q15.87 4.69 14.87 5.59 13.87 6.49 12.55 6.49L12.55 6.49Q11.82 6.49 11.21 6.13 10.6 5.76 10.21 5.08L10.21 5.08Q9.91 5.08 9.67 5.2 9.42 5.32 9.08 5.32L9.08 5.32Q8.94 5.32 8.79 5.27L8.79 5.27Q8.3 4.44 7.84 3.81 7.37 3.17 7.23 2.1L7.23 2.1Q6.69 1.86 6.57 1.22 6.45 0.59 6.01 0.2L6.01 0.2Q5.81-2 5.49-4.2 5.18-6.4 5.18-8.59L5.18-8.59Q5.18-9.08 5.22-9.59 5.27-10.11 5.32-10.64L5.32-10.64Q5.22-10.89 5.05-11.11 4.88-11.33 4.79-11.57L4.79-11.57Q3.81-11.33 2.76-11.11 1.71-10.89 0.63-10.89L0.63-10.89Q-0.05-10.89-1.03-11.11-2-11.33-2.54-11.72L-2.54-11.72Q-2.93-11.96-3.1-12.62-3.27-13.28-3.27-13.77L-3.27-13.77Q-3.27-14.6-2.98-15.45-2.69-16.31-2.2-16.94L-2.2-16.94Q0.2-17.92 2.27-19.34 4.35-20.75 6.35-22.41L6.35-22.41Q6.4-22.9 6.52-23.39 6.64-23.88 6.64-24.41L6.64-24.41Q6.64-25 6.35-25.54L6.35-25.54Q6.64-25.83 6.64-26.29 6.64-26.76 6.88-27.15L6.88-27.15 6.88-27.44Q6.88-27.64 6.86-27.83 6.84-28.03 6.69-28.22L6.69-28.22Q7.03-30.13 7.23-32.01 7.42-33.89 7.42-35.89L7.42-35.89Q7.42-36.04 7.59-36.69 7.76-37.35 7.81-37.6L7.81-37.6Q8.01-38.72 8.08-39.82 8.15-40.92 8.3-42.04L8.3-42.04Q8.35-42.43 8.5-43.07 8.64-43.7 8.64-43.95L8.64-43.95Q8.64-44.29 8.52-44.41 8.4-44.53 8.3-44.82L8.3-44.82Q8.59-45.95 8.62-47.09 8.64-48.24 8.79-49.37L8.79-49.37Q9.62-49.71 10.11-50.05 10.6-50.39 11.52-50.39L11.52-50.39 11.62-50.39Q11.72-49.8 12.06-49.29 12.4-48.78 12.77-48.27 13.13-47.75 13.43-47.29 13.72-46.83 13.72-46.39L13.72-46.39Q13.72-45.56 13.57-44.58 13.43-43.6 13.33-42.77L13.33-42.77Q13.09-40.58 12.89-38.45 12.7-36.33 12.3-34.13L12.3-34.13Q12.45-33.45 12.45-32.86L12.45-32.86Q12.45-31.98 12.3-31.1 12.16-30.22 12.16-29.3L12.16-29.3Q12.16-28.86 12.23-28.37 12.3-27.88 12.5-27.49L12.5-27.49Q14.16-27.93 15.48-29.3L15.48-29.3Q15.67-29.49 15.89-29.81 16.11-30.13 16.36-30.32L16.36-30.32Q16.85-30.71 17.41-31.03 17.97-31.35 18.51-31.69L18.51-31.69Q19.78-32.52 20.97-33.42 22.17-34.33 23.39-35.21L23.39-35.21Q27-37.84 30.4-40.7 33.79-43.55 37.01-46.73L37.01-46.73Q37.16-47.56 37.6-48.05 38.04-48.54 38.38-49.22L38.38-49.22Q39.31-49.56 39.99-50.24L39.99-50.24Q40.28-50.15 40.6-50.12 40.92-50.1 41.24-50.1 41.55-50.1 41.87-50.07 42.19-50.05 42.43-49.9L42.43-49.9Q42.48-49.17 42.58-48.58 42.68-48 43.16-47.46L43.16-47.46Q43.16-47.36 43.19-47.27 43.21-47.17 43.21-47.07L43.21-47.07Q43.21-46.53 42.92-46.19 42.63-45.85 42.58-45.36L42.58-45.36 40.04-42.82Q38.77-41.55 37.7-40.09L37.7-40.09Q37.3-40.04 37.01-39.84 36.72-39.65 36.45-39.43 36.18-39.21 35.89-39.01 35.6-38.82 35.25-38.72L35.25-38.72Q34.38-37.55 33.25-36.6 32.13-35.64 30.96-34.77 29.79-33.89 28.64-32.98 27.49-32.08 26.51-31.01L26.51-31.01Q25.49-30.52 24.54-29.86 23.58-29.2 23-28.22L23-28.22 22.75-28.22Q22.51-28.22 22.36-28.1 22.22-27.98 21.97-27.98L21.97-27.98Q19.34-25.68 16.5-23.66 13.67-21.63 11.08-19.24L11.08-19.24 11.08-18.02Q11.91-17.53 12.89-17.11 13.87-16.7 14.82-16.21 15.77-15.72 16.63-15.16 17.48-14.6 18.12-13.82L18.12-13.82Q18.21-13.87 18.36-13.87L18.36-13.87Q18.8-13.87 19.04-13.6 19.29-13.33 19.87-13.43L19.87-13.43Q20.07-12.65 20.75-12.3 21.44-11.96 22.12-11.72L22.12-11.72Q22.71-11.13 23.19-10.62 23.68-10.11 24.61-9.96L24.61-9.96Q24.71-9.77 24.76-9.52 24.8-9.28 24.95-9.08L24.95-9.08Q25.88-8.79 26.73-8.25 27.59-7.71 28.42-7.15 29.25-6.59 30.1-6.08 30.96-5.57 31.93-5.27L31.93-5.27Q32.08-4.79 32.5-4.59 32.91-4.39 33.15-4L33.15-4 34.03-4Q34.18-3.76 34.42-3.54 34.67-3.32 34.77-2.93L34.77-2.93Q35.16-2.83 35.64-2.66 36.13-2.49 36.52-2.25L36.52-2.25Q36.67-2.1 36.74-1.9 36.82-1.71 37.01-1.56L37.01-1.56Q37.3-1.32 37.92-1.2 38.53-1.07 38.96-0.83L38.96-0.83Q39.84-0.34 40.67 0.27 41.5 0.88 42.43 1.42L42.43 1.42 44.34 2.44Q44.82 2.69 45.24 2.98 45.65 3.27 46.09 3.52L46.09 3.52Q46.97 3.91 47.97 4.03 48.97 4.15 49.8 4.54L49.8 4.54Q50.05 4.69 50.15 4.91 50.24 5.13 50.49 5.27L50.49 5.27Q50.88 5.52 51.71 5.62 52.54 5.71 53.08 5.96L53.08 5.96Q53.76 6.25 54.42 6.52 55.08 6.79 55.76 7.18L55.76 7.18Q57.23 7.28 58.67 7.52 60.11 7.76 61.52 8.01 62.94 8.25 64.38 8.45 65.82 8.64 67.29 8.59L67.29 8.59Q67.29 8.69 67.41 8.72 67.53 8.74 67.63 8.74L67.63 8.74Q67.97 9.28 68.21 9.81 68.46 10.35 68.46 10.94ZM69.28-22.8L69.28-22.8Q69.09-22.31 68.89-21.88 68.7-21.44 68.6-20.9L68.6-20.9Q68.26-20.65 67.84-20.53 67.43-20.41 66.99-20.29 66.55-20.17 66.18-20 65.82-19.82 65.62-19.48L65.62-19.48Q65.48-18.75 65.48-18.12L65.48-18.12Q65.48-17.29 65.77-16.7L65.77-16.7Q65.62-16.26 65.57-15.77 65.52-15.28 65.52-14.84L65.52-14.84Q65.52-13.23 65.92-11.65 66.31-10.06 66.35-8.45L66.35-8.45Q66.35-8.2 66.31-7.91 66.26-7.62 66.26-7.37L66.26-7.37Q66.26-6.35 67.04-6.01L67.04-6.01Q66.89-5.76 66.89-5.57L66.89-5.57Q66.89-5.18 66.99-4.88 67.09-4.59 67.04-4.25L67.04-4.25Q67.28-3.76 67.53-3.39 67.77-3.03 67.87-2.49L67.87-2.49Q67.53-1.81 67.04-1.25 66.55-0.68 66.35 0.15L66.35 0.15Q66.16 0.1 65.92 0.1L65.92 0.1Q65.57 0.1 65.38 0.24 65.18 0.39 65.06 0.61 64.94 0.83 64.79 1.05 64.65 1.27 64.4 1.37L64.4 1.37 64.26 1.37Q64.01 1.42 63.84 1.34 63.67 1.27 63.52 1.27L63.52 1.27Q63.43 1.27 63.13 1.37L63.13 1.37Q62.74 0.88 62.6 0.22 62.45-0.44 62.45-1.07L62.45-1.07Q62.45-1.76 62.64-2.29L62.64-2.29Q62.11-2.73 61.98-3.61 61.86-4.49 61.72-5.08L61.72-5.08Q61.33-6.88 60.81-8.59 60.3-10.3 60.2-12.11L60.2-12.11Q60.15-12.79 60.15-13.43L60.15-13.43 60.15-15.97Q60.15-16.6 60.2-17.19L60.2-17.19Q60.2-17.63 60.28-18.04 60.35-18.46 60.35-18.9L60.35-18.9Q60.35-19.48 59.96-20.02L59.96-20.02Q56.49-19.87 53.39-18.77 50.29-17.68 47.21-16.16L47.21-16.16Q47.02-15.04 46.97-13.96 46.92-12.89 46.92-11.77L46.92-11.77 46.92-9.62Q46.92-8.4 47.02-7.57L47.02-7.57Q47.26-6.15 48.46-5.4 49.66-4.64 50.88-4.25L50.88-4.25Q50.83-3.52 50.58-3 50.34-2.49 49.97-2.08 49.61-1.66 49.17-1.27 48.73-0.88 48.29-0.39L48.29-0.39Q47.9-0.63 47.51-0.73 47.12-0.83 46.68-0.85 46.24-0.88 45.8-0.93 45.36-0.98 44.92-1.12L44.92-1.12 43.85-2.59Q43.31-3.32 42.67-4.05L42.67-4.05 42.67-4.49Q42.67-5.81 42.19-7.03 41.7-8.25 41.45-9.52L41.45-9.52Q41.6-9.96 41.65-10.4 41.7-10.84 41.7-11.33L41.7-11.33Q41.7-12.3 41.62-13.23 41.55-14.16 41.65-15.09L41.65-15.09 41.4-15.09Q40.96-15.09 40.48-14.87 39.99-14.65 39.52-14.38 39.06-14.11 38.64-13.89 38.23-13.67 37.94-13.67L37.94-13.67Q37.79-13.67 37.64-13.72 37.5-13.77 37.3-13.77L37.3-13.77Q37.06-13.77 36.72-13.57 36.37-13.38 35.96-13.16 35.54-12.94 35.1-12.74 34.67-12.55 34.23-12.55L34.23-12.55Q33.54-12.55 32.86-13.13L32.86-13.13Q32.76-13.53 32.79-13.87 32.81-14.21 32.81-14.6L32.81-14.6Q32.81-14.99 32.66-15.43L32.66-15.43Q33.01-16.06 33.57-16.43 34.13-16.8 34.74-17.11 35.35-17.43 35.98-17.75 36.62-18.07 37.06-18.6L37.06-18.6 37.35-18.6Q38.03-18.6 38.6-18.9 39.16-19.19 39.89-19.14L39.89-19.14Q40.13-19.24 40.23-19.87L40.23-19.87 40.43-19.82Q41.5-19.82 42.33-20.56L42.33-20.56Q42.87-23.58 43.21-26.66 43.55-29.74 43.55-32.81L43.55-32.81Q43.55-33.11 43.36-33.4L43.36-33.4Q43.26-33.79 43.26-34.13L43.26-34.13 43.26-34.86Q43.26-35.4 43.31-35.99 43.36-36.57 43.55-37.16L43.55-37.16Q44.04-37.45 44.58-37.45L44.58-37.45Q45.21-37.45 45.82-37.28 46.43-37.11 47.02-37.01L47.02-37.01Q47.46-36.57 47.68-36.04 47.9-35.5 47.95-34.94 48-34.38 47.97-33.81 47.95-33.25 47.95-32.71L47.95-32.71Q47.95-31.64 48.19-30.62 48.44-29.59 48.44-28.61L48.44-28.61Q48.44-28.37 48.26-28.25 48.09-28.13 48.09-27.59L48.09-27.59Q48.09-27.05 48.19-26.46 48.29-25.88 48.29-25.29L48.29-25.29Q48.29-24.61 48.09-23.88 47.9-23.14 47.75-22.46L47.75-22.46Q50.68-22.71 53.76-23.19 56.83-23.68 59.62-24.76L59.62-24.76Q59.67-24.85 59.67-25.05L59.67-25.05Q59.67-25.34 59.62-25.63 59.57-25.93 59.57-26.27L59.57-26.27Q59.57-26.86 59.96-27.2L59.96-27.2Q59.71-28.56 59.62-29.93 59.52-31.3 59.52-32.67L59.52-32.67 59.52-35.45Q59.52-36.82 59.47-38.18L59.47-38.18Q59.86-38.43 60.3-38.43L60.3-38.43Q60.84-38.43 61.3-38.16 61.77-37.89 62.4-37.89L62.4-37.89Q62.84-37.89 63.13-38.04L63.13-38.04Q63.67-37.55 63.86-36.77 64.06-35.99 64.21-35.16 64.35-34.33 64.52-33.52 64.69-32.71 65.23-32.23L65.23-32.23 65.28-32.08Q65.28-31.88 65.09-31.79 64.89-31.69 64.89-31.4L64.89-31.4 64.89-31.2Q65.09-30.42 65.18-29.59 65.28-28.76 65.35-27.91 65.43-27.05 65.57-26.25 65.72-25.44 66.11-24.76L66.11-24.76Q66.35-24.8 66.75-24.8L66.75-24.8Q67.72-24.8 68.28-24.15 68.85-23.49 69.28-22.8ZM108.74-3.56L108.74-3.56Q108.59-2.88 108.12-2.47 107.66-2.05 107.03-1.81 106.39-1.56 105.73-1.49 105.07-1.42 104.54-1.42L104.54-1.42Q104.29-1.42 104.07-1.44 103.85-1.46 103.61-1.46L103.61-1.46Q103.36-1.46 103.36-1.22 103.36-0.98 103.12-0.88L103.12-0.88Q102.88-0.98 102.63-1.03 102.39-1.07 102.14-1.07L102.14-1.07Q101.8-1.07 101.48-1.03 101.17-0.98 100.87-0.98L100.87-0.98Q100.48-0.98 100.31-1.07 100.14-1.17 100.02-1.29 99.9-1.42 99.78-1.56 99.65-1.71 99.41-1.81L99.41-1.81Q99.07-1.95 98.85-1.86 98.63-1.76 98.19-2.15L98.19-2.15Q97.6-2.64 97.19-3.34 96.77-4.05 96.38-4.83 95.99-5.62 95.55-6.4 95.11-7.18 94.53-7.76L94.53-7.76 94.14-7.76Q93.26-7.76 92.91-7.03L92.91-7.03Q92.67-7.18 92.43-7.4 92.18-7.62 91.89-7.76L91.89-7.76Q90.77-7.42 89.55-7.18 88.33-6.93 87.1-6.93L87.1-6.93 86.42-6.93Q86.13-6.93 85.79-7.03L85.79-7.03Q85.3-6.84 84.91-6.57 84.52-6.3 84.03-6.3L84.03-6.3Q83.74-6.3 83.34-6.49L83.34-6.49Q83.05-6.49 83.08-6.25 83.1-6.01 82.76-6.01L82.76-6.01 82.32-6.01Q81.64-6.01 80.98-5.96 80.32-5.91 79.63-5.91L79.63-5.91Q78.71-5.91 77.73-6.15L77.73-6.15Q77.49-6.01 77.19-6.01L77.19-6.01Q77-5.91 76.9-5.69 76.8-5.47 76.7-5.3 76.61-5.13 76.44-5 76.26-4.88 75.97-4.93L75.97-4.93Q75.87-4.35 75.48-4 75.09-3.66 75.09-2.98L75.09-2.98Q74.56-2.69 74.21-2.25 73.87-1.81 73.53-1.32 73.19-0.83 72.82-0.39 72.46 0.05 71.92 0.29L71.92 0.29Q71.67 0.59 71.77 1.22L71.77 1.22Q71.24 1.66 70.45 2 69.67 2.34 68.99 2.34L68.99 2.34Q67.57 2.34 67.04 0.83L67.04 0.83Q67.04 0.34 67.11-0.22 67.18-0.78 67.33-1.29 67.48-1.81 67.77-2.22 68.06-2.64 68.6-2.83L68.6-2.83Q68.6-3.27 68.31-3.44 68.01-3.61 68.06-4.05L68.06-4.05Q69.38-4.69 70.36-5.71 71.33-6.74 72.14-7.89 72.94-9.03 73.77-10.21 74.6-11.38 75.63-12.3L75.63-12.3 75.63-13.33Q77.09-14.89 77.53-16.85L77.53-16.85Q78.07-16.94 78.24-17.33 78.41-17.72 78.41-18.26L78.41-18.26Q78.66-18.26 78.73-18.48 78.8-18.7 79.15-18.6L79.15-18.6Q79.58-19.78 80.12-20.75 80.66-21.73 81.2-22.73 81.73-23.73 82.15-24.8 82.56-25.88 82.76-27.2L82.76-27.2Q83.44-27.25 83.52-27.86 83.59-28.47 83.69-28.96L83.69-28.96Q84.42-29.64 84.79-30.57 85.15-31.49 85.44-32.5 85.74-33.5 86.1-34.5 86.47-35.5 87.15-36.28L87.15-36.28 87.15-36.43Q87.15-36.67 86.96-36.74 86.76-36.82 86.76-37.06L86.76-37.06Q86.81-37.11 86.81-37.16L86.81-37.16Q87.4-37.4 87.69-37.96 87.98-38.53 88.57-38.77L88.57-38.77Q89.59-37.94 90.38-37.77 91.16-37.6 92.43-37.5L92.43-37.5Q93.06-36.82 93.13-35.86 93.21-34.91 93.45-33.98L93.45-33.98Q93.84-32.42 94.31-30.93 94.77-29.44 95.01-27.88L95.01-27.88Q95.16-26.95 95.55-26.12 95.94-25.29 96.09-24.41L96.09-24.41Q96.19-23.73 96.09-22.88 95.99-22.02 96.28-21.39L96.28-21.39 96.63-20.61Q96.87-20.07 97.04-19.48 97.21-18.9 97.36-18.31L97.36-18.31Q97.75-16.85 98.07-15.16 98.38-13.48 99.07-12.11L99.07-12.11Q99.31-11.62 99.82-11.43 100.34-11.23 100.97-11.16 101.61-11.08 102.22-11.11 102.83-11.13 103.27-11.13L103.27-11.13 103.75-11.13Q104.05-11.13 104.34-11.04L104.34-11.04Q104.54-10.64 104.54-10.35L104.54-10.35Q104.54-9.77 104.15-9.42 103.75-9.08 103.75-8.64L103.75-8.64Q103.75-8.4 103.95-8.11L103.95-8.11Q103.75-8.15 103.36-8.15L103.36-8.15Q102.24-8.15 101.17-7.76L101.17-7.76Q101.56-6.93 102.22-6.37 102.88-5.81 103.61-5.32L103.61-5.32Q104.1-5.71 104.63-5.71L104.63-5.71Q105.22-5.71 105.73-5.44 106.25-5.18 106.83-5.18L106.83-5.18Q107.27-5.18 107.47-5.32L107.47-5.32Q107.86-4.88 108.1-4.42 108.34-3.96 108.74-3.56ZM93.45-11.38L93.45-11.38Q93.35-12.21 93.13-12.57 92.91-12.94 92.77-13.48L92.77-13.48Q92.57-14.16 92.5-14.94 92.43-15.72 92.28-16.46L92.28-16.46Q91.94-18.12 91.52-19.78 91.11-21.44 90.47-23L90.47-23Q90.67-23.29 90.67-23.54L90.67-23.54 90.67-23.68Q90.23-24.17 90.03-24.88 89.84-25.59 89.67-26.29 89.5-27 89.23-27.61 88.96-28.22 88.37-28.61L88.37-28.61Q88.23-28.32 88.23-27.93L88.23-27.93Q88.23-27.59 88.3-27.29 88.37-27 88.37-26.66L88.37-26.66Q87.89-26.42 87.67-25.9 87.45-25.39 86.96-25.1L86.96-25.1Q86.57-23.54 85.83-22.14 85.1-20.75 84.3-19.38 83.49-18.02 82.76-16.63 82.03-15.23 81.59-13.72L81.59-13.72Q80.95-13.28 80.73-12.6 80.51-11.91 80.51-11.23L80.51-11.23Q80.95-10.99 81.51-10.96 82.08-10.94 82.61-10.94 83.15-10.94 83.64-10.84 84.13-10.74 84.52-10.35L84.52-10.35Q85.15-10.55 85.91-10.62 86.66-10.69 87.15-11.04L87.15-11.04Q88.13-10.69 89.25-10.69L89.25-10.69Q89.84-10.69 90.4-10.79 90.96-10.89 91.5-11.04L91.5-11.04Q91.94-10.94 92.18-10.72 92.43-10.5 92.91-10.55L92.91-10.55Q93.16-10.74 93.21-10.96 93.26-11.18 93.45-11.38ZM134.95-12.55L134.95-12.55Q134.95-12.01 134.56-11.74 134.17-11.47 134.17-11.04L134.17-11.04Q134.17-10.84 134.37-10.55L134.37-10.55Q133.68-10.55 133.44-10.11 133.2-9.67 132.95-9.13L132.95-9.13 132.32-9.13Q132.07-9.13 131.93-9.03 131.78-8.94 131.66-8.76 131.54-8.59 131.34-8.25L131.34-8.25Q130.41-8.06 129.56-7.64 128.7-7.23 127.9-6.76 127.09-6.3 126.26-5.83 125.43-5.37 124.55-5.08L124.55-5.08Q124.11-4.35 123.28-3.91L123.28-3.91 123.14-3.91Q122.89-3.86 122.72-3.98 122.55-4.1 122.31-4.1L122.31-4.1Q122.16-4.1 122.11-4.05L122.11-4.05Q120.65-3.08 118.84-3.08L118.84-3.08Q118.35-3.08 117.91-3.15 117.47-3.22 116.98-3.22L116.98-3.22Q116.84-3.22 116.79-3.13L116.79-3.13 116.69-2.93Q116.64-2.83 116.57-2.73 116.5-2.64 116.2-2.64L116.2-2.64Q115.67-2.64 115.13-2.78 114.59-2.93 114.01-2.83L114.01-2.83Q112.88-3.47 112.25-4.05 111.61-4.64 111.08-5.81L111.08-5.81Q110.83-6.35 110.42-6.84 110-7.32 109.81-7.91L109.81-7.91Q109.76-8.11 109.66-8.62 109.56-9.13 109.47-9.72 109.37-10.3 109.29-10.84 109.22-11.38 109.22-11.57L109.22-11.57Q109.22-12.16 109.29-12.72 109.37-13.28 109.47-13.87L109.47-13.87Q109.76-15.72 109.88-17.6 110-19.48 110.69-21.24L110.69-21.24Q110.59-21.78 110.59-22.27L110.59-22.27 110.59-23.34Q110.59-24.27 110.34-24.9L110.34-24.9Q110.73-25.54 110.73-26.32L110.73-26.32Q110.73-27.2 110-27.34L110-27.34 110-27.49Q110-28.52 109.32-29.1L109.32-29.1Q109.32-30.81 110.17-31.67 111.03-32.52 112.44-33.15L112.44-33.15Q112.64-33.45 112.59-33.64L112.59-33.64Q112.93-33.54 113.22-33.45 113.52-33.35 113.81-33.35L113.81-33.35Q114.3-33.35 114.69-33.5L114.69-33.5Q114.84-32.91 115.45-32.79 116.06-32.67 116.45-32.47L116.45-32.47 116.45-31.84Q116.45-30.32 117.18-28.96L117.18-28.96Q116.98-28.56 116.94-28.13 116.89-27.69 116.89-27.29L116.89-27.29Q116.89-26.71 116.94-26.12 116.98-25.54 116.98-25L116.98-25Q116.98-24.41 116.86-23.83 116.74-23.24 116.3-22.8L116.3-22.8Q116.25-22.17 116.23-21.36 116.2-20.56 116.13-19.73 116.06-18.9 115.86-18.12 115.67-17.33 115.28-16.85L115.28-16.85Q115.23-16.11 115.2-15.36 115.18-14.6 115.18-13.92L115.18-13.92Q115.18-12.84 115.3-11.38 115.42-9.91 115.96-8.94L115.96-8.94Q116.2-8.54 116.91-8.35 117.62-8.15 118.06-8.15L118.06-8.15Q118.6-8.15 119.16-8.33 119.72-8.5 119.96-8.94L119.96-8.94Q120.26-8.89 120.35-8.64 120.45-8.4 120.7-8.25L120.7-8.25Q123.48-9.42 126.26-10.5 129.05-11.57 131.73-12.99L131.73-12.99Q132.12-12.79 132.56-12.79L132.56-12.79Q133.05-12.79 133.54-12.89 134.03-12.99 134.51-12.99L134.51-12.99 134.86-12.99Q134.95-12.7 134.95-12.55ZM165.52-31.05L165.52-31.05 165.52-30.86Q165.18-30.76 165.18-30.37L165.18-30.37Q164.64-30.13 164.05-30 163.47-29.88 162.93-29.64L162.93-29.64Q162.39-29.69 161.83-29.71 161.27-29.74 160.73-29.74L160.73-29.74Q159.27-29.74 157.8-29.64 156.34-29.54 154.87-29.64L154.87-29.64Q154.19-29.25 153.38-29.03 152.58-28.81 151.85-28.81L151.85-28.81Q151.26-28.81 150.82-28.96L150.82-28.96Q149.65-28.37 148.26-27.98 146.87-27.59 145.45-27.22 144.03-26.86 142.74-26.39 141.45-25.93 140.47-25.1L140.47-25.1Q140.37-24.41 140.32-23.75 140.27-23.1 140.27-22.46L140.27-22.46Q140.27-21.78 140.35-21.19 140.42-20.61 140.66-20.02L140.66-20.02Q140.91-19.92 141.23-19.87 141.54-19.82 141.79-19.82L141.79-19.82Q142.03-19.82 142.28-19.9 142.52-19.97 142.62-20.21L142.62-20.21Q143.35-20.31 144.08-20.29 144.81-20.26 145.55-20.26L145.55-20.26Q146.28-20.26 146.99-20.31 147.7-20.36 148.38-20.56L148.38-20.56Q149.16-20.75 149.92-20.8 150.67-20.85 151.41-20.9 152.14-20.95 152.92-21.07 153.7-21.19 154.53-21.58L154.53-21.58Q155.17-21.34 155.82-21.34 156.48-21.34 157.12-21.24L157.12-21.24Q157.46-21 157.68-20.7 157.9-20.41 157.9-20.02L157.9-20.02Q157.9-19.34 157.41-18.65 156.92-17.97 156.63-17.38L156.63-17.38 156.09-17.38Q154.92-17.38 153.82-17.07 152.72-16.75 151.63-16.33 150.53-15.92 149.43-15.6 148.33-15.28 147.16-15.28L147.16-15.28Q146.96-15.28 146.94-15.06 146.91-14.84 146.82-14.75L146.82-14.75Q146.57-14.79 146.08-14.79L146.08-14.79Q144.96-14.79 143.94-14.55 142.91-14.31 141.84-14.31L141.84-14.31Q141.54-14.31 141.25-14.33 140.96-14.36 140.66-14.4L140.66-14.4Q140.42-14.01 140.03-13.89 139.64-13.77 139.3-13.48L139.3-13.48Q139.15-13.04 139.13-12.4 139.1-11.77 139.08-11.11 139.05-10.45 138.95-9.86 138.86-9.28 138.56-8.94L138.56-8.94Q138.61-8.69 138.95-8.76 139.3-8.84 139.3-8.45L139.3-8.45Q139.3-8.01 139.2-7.52 139.1-7.03 139.1-6.54L139.1-6.54Q139.1-5.62 139.32-4.52 139.54-3.42 140-2.49 140.47-1.56 141.25-0.95 142.03-0.34 143.2-0.34L143.2-0.34Q143.98-0.34 144.67-0.63 145.35-0.93 145.79-1.61L145.79-1.61 146.03-1.66Q146.23-1.66 146.4-1.61 146.57-1.56 146.77-1.56L146.77-1.56Q147.06-1.56 147.52-1.93 147.99-2.29 148.55-2.78 149.11-3.27 149.7-3.74 150.28-4.2 150.82-4.39L150.82-4.39Q151.16-5.08 151.48-5.76 151.8-6.45 152.43-6.84L152.43-6.84 152.43-8.25Q152.92-8.79 153.48-9.23 154.04-9.67 154.34-10.35L154.34-10.35Q154.58-10.25 154.8-10.21 155.02-10.16 155.26-10.16L155.26-10.16Q155.51-10.16 155.78-10.21 156.04-10.25 156.29-10.35L156.29-10.35Q156.68-9.81 156.9-9.16 157.12-8.5 157.46-7.91L157.46-7.91Q157.02-7.03 156.44-5.81 155.85-4.59 155.17-3.37 154.48-2.15 153.73-1.05 152.97 0.05 152.24 0.63L152.24 0.63Q152.09 0.78 151.6 0.98L151.6 0.98Q151.06 1.37 150.62 1.73 150.19 2.1 149.79 2.59L149.79 2.59Q148.38 3.03 147.08 3.76 145.79 4.49 144.52 5.18L144.52 5.18Q143.94 5.03 143.25 5.03L143.25 5.03Q142.67 5.03 142.08 5.1 141.49 5.18 140.81 5.18L140.81 5.18Q140.62 4.93 140.25 4.86 139.88 4.79 139.98 4.35L139.98 4.35Q138.32 4.25 137.29 3.44 136.27 2.64 135.56 1.46 134.85 0.29 134.41-1.07 133.97-2.44 133.49-3.71L133.49-3.71 133.49-3.86Q133.49-4.1 133.68-4.15 133.88-4.2 133.88-4.44L133.88-4.44Q133.88-4.54 133.83-4.59L133.83-4.59Q133.68-5.13 133.58-5.52 133.49-5.91 133.49-6.45L133.49-6.45Q133.49-7.23 133.58-7.98 133.68-8.74 133.68-9.52L133.68-9.52Q133.68-10.3 133.49-10.89L133.49-10.89Q133.68-11.13 133.8-11.55 133.93-11.96 133.97-12.4 134.02-12.84 134.05-13.28 134.07-13.72 134.17-14.06L134.17-14.06Q133.97-14.6 133.83-15.01 133.68-15.43 133.68-16.02L133.68-16.02 133.68-16.36Q134.17-17.19 134.51-18.07 134.85-18.95 135.24-19.87L135.24-19.87 135.24-20.02Q135.24-21.44 135.15-22.85 135.05-24.27 135.05-25.68L135.05-25.68 135.05-26.61Q135.05-27.1 135.1-27.54L135.1-27.54Q135.49-27.73 135.68-28.08 135.88-28.42 136.27-28.61L136.27-28.61 137.88-28.61 138.17-29.1Q138.32-29.35 138.37-29.64L138.37-29.64Q138.91-29.79 139.42-30.05 139.93-30.32 140.37-30.62L140.37-30.62Q141.05-31.01 141.62-31.32 142.18-31.64 142.74-31.86 143.3-32.08 143.94-32.23 144.57-32.37 145.4-32.47L145.4-32.47Q145.79-32.47 145.91-32.62 146.03-32.76 146.28-32.96L146.28-32.96Q146.87-32.86 147.45-32.79 148.04-32.71 148.62-32.71L148.62-32.71Q149.79-32.71 150.82-33.15L150.82-33.15Q152.28-33.15 153.73-33.2 155.17-33.25 156.63-33.25L156.63-33.25Q157.9-33.25 159.17-33.15 160.44-33.06 161.66-32.81L161.66-32.81Q162.1-32.96 162.64-32.96L162.64-32.96Q163.22-32.96 163.83-32.84 164.44-32.71 165.03-32.81L165.03-32.81Q165.08-32.28 165.3-31.91 165.52-31.54 165.52-31.05ZM194.08-31.05L194.08-31.05 194.08-30.86Q193.74-30.76 193.74-30.37L193.74-30.37Q193.2-30.13 192.61-30 192.03-29.88 191.49-29.64L191.49-29.64Q190.95-29.69 190.39-29.71 189.83-29.74 189.29-29.74L189.29-29.74Q187.83-29.74 186.36-29.64 184.9-29.54 183.43-29.64L183.43-29.64Q182.75-29.25 181.95-29.03 181.14-28.81 180.41-28.81L180.41-28.81Q179.82-28.81 179.38-28.96L179.38-28.96Q178.21-28.37 176.82-27.98 175.43-27.59 174.01-27.22 172.59-26.86 171.3-26.39 170.01-25.93 169.03-25.1L169.03-25.1Q168.93-24.41 168.88-23.75 168.84-23.1 168.84-22.46L168.84-22.46Q168.84-21.78 168.91-21.19 168.98-20.61 169.23-20.02L169.23-20.02Q169.47-19.92 169.79-19.87 170.1-19.82 170.35-19.82L170.35-19.82Q170.59-19.82 170.84-19.9 171.08-19.97 171.18-20.21L171.18-20.21Q171.91-20.31 172.64-20.29 173.38-20.26 174.11-20.26L174.11-20.26Q174.84-20.26 175.55-20.31 176.26-20.36 176.94-20.56L176.94-20.56Q177.72-20.75 178.48-20.8 179.24-20.85 179.97-20.9 180.7-20.95 181.48-21.07 182.26-21.19 183.09-21.58L183.09-21.58Q183.73-21.34 184.39-21.34 185.05-21.34 185.68-21.24L185.68-21.24Q186.02-21 186.24-20.7 186.46-20.41 186.46-20.02L186.46-20.02Q186.46-19.34 185.97-18.65 185.49-17.97 185.19-17.38L185.19-17.38 184.66-17.38Q183.48-17.38 182.38-17.07 181.29-16.75 180.19-16.33 179.09-15.92 177.99-15.6 176.89-15.28 175.72-15.28L175.72-15.28Q175.52-15.28 175.5-15.06 175.48-14.84 175.38-14.75L175.38-14.75Q175.13-14.79 174.65-14.79L174.65-14.79Q173.52-14.79 172.5-14.55 171.47-14.31 170.4-14.31L170.4-14.31Q170.1-14.31 169.81-14.33 169.52-14.36 169.23-14.4L169.23-14.4Q168.98-14.01 168.59-13.89 168.2-13.77 167.86-13.48L167.86-13.48Q167.71-13.04 167.69-12.4 167.66-11.77 167.64-11.11 167.61-10.45 167.52-9.86 167.42-9.28 167.13-8.94L167.13-8.94Q167.18-8.69 167.52-8.76 167.86-8.84 167.86-8.45L167.86-8.45Q167.86-8.01 167.76-7.52 167.66-7.03 167.66-6.54L167.66-6.54Q167.66-5.62 167.88-4.52 168.1-3.42 168.57-2.49 169.03-1.56 169.81-0.95 170.59-0.34 171.76-0.34L171.76-0.34Q172.55-0.34 173.23-0.63 173.91-0.93 174.35-1.61L174.35-1.61 174.6-1.66Q174.79-1.66 174.96-1.61 175.13-1.56 175.33-1.56L175.33-1.56Q175.62-1.56 176.09-1.93 176.55-2.29 177.11-2.78 177.67-3.27 178.26-3.74 178.84-4.2 179.38-4.39L179.38-4.39Q179.72-5.08 180.04-5.76 180.36-6.45 180.99-6.84L180.99-6.84 180.99-8.25Q181.48-8.79 182.04-9.23 182.6-9.67 182.9-10.35L182.9-10.35Q183.14-10.25 183.36-10.21 183.58-10.16 183.83-10.16L183.83-10.16Q184.07-10.16 184.34-10.21 184.61-10.25 184.85-10.35L184.85-10.35Q185.24-9.81 185.46-9.16 185.68-8.5 186.02-7.91L186.02-7.91Q185.58-7.03 185-5.81 184.41-4.59 183.73-3.37 183.04-2.15 182.29-1.05 181.53 0.05 180.8 0.63L180.8 0.63Q180.65 0.78 180.16 0.98L180.16 0.98Q179.63 1.37 179.19 1.73 178.75 2.1 178.36 2.59L178.36 2.59Q176.94 3.03 175.65 3.76 174.35 4.49 173.08 5.18L173.08 5.18Q172.5 5.03 171.81 5.03L171.81 5.03Q171.23 5.03 170.64 5.1 170.06 5.18 169.37 5.18L169.37 5.18Q169.18 4.93 168.81 4.86 168.44 4.79 168.54 4.35L168.54 4.35Q166.88 4.25 165.86 3.44 164.83 2.64 164.12 1.46 163.42 0.29 162.98-1.07 162.54-2.44 162.05-3.71L162.05-3.71 162.05-3.86Q162.05-4.1 162.24-4.15 162.44-4.2 162.44-4.44L162.44-4.44Q162.44-4.54 162.39-4.59L162.39-4.59Q162.24-5.13 162.15-5.52 162.05-5.91 162.05-6.45L162.05-6.45Q162.05-7.23 162.15-7.98 162.24-8.74 162.24-9.52L162.24-9.52Q162.24-10.3 162.05-10.89L162.05-10.89Q162.24-11.13 162.37-11.55 162.49-11.96 162.54-12.4 162.59-12.84 162.61-13.28 162.63-13.72 162.73-14.06L162.73-14.06Q162.54-14.6 162.39-15.01 162.24-15.43 162.24-16.02L162.24-16.02 162.24-16.36Q162.73-17.19 163.07-18.07 163.42-18.95 163.81-19.87L163.81-19.87 163.81-20.02Q163.81-21.44 163.71-22.85 163.61-24.27 163.61-25.68L163.61-25.68 163.61-26.61Q163.61-27.1 163.66-27.54L163.66-27.54Q164.05-27.73 164.25-28.08 164.44-28.42 164.83-28.61L164.83-28.61 166.44-28.61 166.74-29.1Q166.88-29.35 166.93-29.64L166.93-29.64Q167.47-29.79 167.98-30.05 168.49-30.32 168.93-30.62L168.93-30.62Q169.62-31.01 170.18-31.32 170.74-31.64 171.3-31.86 171.86-32.08 172.5-32.23 173.13-32.37 173.96-32.47L173.96-32.47Q174.35-32.47 174.47-32.62 174.6-32.76 174.84-32.96L174.84-32.96Q175.43-32.86 176.01-32.79 176.6-32.71 177.18-32.71L177.18-32.71Q178.36-32.71 179.38-33.15L179.38-33.15Q180.85-33.15 182.29-33.2 183.73-33.25 185.19-33.25L185.19-33.25Q186.46-33.25 187.73-33.15 189-33.06 190.22-32.81L190.22-32.81Q190.66-32.96 191.2-32.96L191.2-32.96Q191.78-32.96 192.39-32.84 193.01-32.71 193.59-32.81L193.59-32.81Q193.64-32.28 193.86-31.91 194.08-31.54 194.08-31.05ZM218.34-12.55L218.34-12.55Q218.34-12.01 217.95-11.74 217.56-11.47 217.56-11.04L217.56-11.04Q217.56-10.84 217.76-10.55L217.76-10.55Q217.07-10.55 216.83-10.11 216.59-9.67 216.34-9.13L216.34-9.13 215.71-9.13Q215.46-9.13 215.32-9.03 215.17-8.94 215.05-8.76 214.93-8.59 214.73-8.25L214.73-8.25Q213.8-8.06 212.95-7.64 212.09-7.23 211.29-6.76 210.48-6.3 209.65-5.83 208.82-5.37 207.94-5.08L207.94-5.08Q207.5-4.35 206.67-3.91L206.67-3.91 206.53-3.91Q206.28-3.86 206.11-3.98 205.94-4.1 205.7-4.1L205.7-4.1Q205.55-4.1 205.5-4.05L205.5-4.05Q204.04-3.08 202.23-3.08L202.23-3.08Q201.74-3.08 201.3-3.15 200.86-3.22 200.38-3.22L200.38-3.22Q200.23-3.22 200.18-3.13L200.18-3.13 200.08-2.93Q200.03-2.83 199.96-2.73 199.89-2.64 199.59-2.64L199.59-2.64Q199.06-2.64 198.52-2.78 197.98-2.93 197.4-2.83L197.4-2.83Q196.27-3.47 195.64-4.05 195-4.64 194.47-5.81L194.47-5.81Q194.22-6.35 193.81-6.84 193.39-7.32 193.2-7.91L193.2-7.91Q193.15-8.11 193.05-8.62 192.95-9.13 192.86-9.72 192.76-10.3 192.69-10.84 192.61-11.38 192.61-11.57L192.61-11.57Q192.61-12.16 192.69-12.72 192.76-13.28 192.86-13.87L192.86-13.87Q193.15-15.72 193.27-17.6 193.39-19.48 194.08-21.24L194.08-21.24Q193.98-21.78 193.98-22.27L193.98-22.27 193.98-23.34Q193.98-24.27 193.74-24.9L193.74-24.9Q194.13-25.54 194.13-26.32L194.13-26.32Q194.13-27.2 193.39-27.34L193.39-27.34 193.39-27.49Q193.39-28.52 192.71-29.1L192.71-29.1Q192.71-30.81 193.56-31.67 194.42-32.52 195.83-33.15L195.83-33.15Q196.03-33.45 195.98-33.64L195.98-33.64Q196.32-33.54 196.62-33.45 196.91-33.35 197.2-33.35L197.2-33.35Q197.69-33.35 198.08-33.5L198.08-33.5Q198.23-32.91 198.84-32.79 199.45-32.67 199.84-32.47L199.84-32.47 199.84-31.84Q199.84-30.32 200.57-28.96L200.57-28.96Q200.38-28.56 200.33-28.13 200.28-27.69 200.28-27.29L200.28-27.29Q200.28-26.71 200.33-26.12 200.38-25.54 200.38-25L200.38-25Q200.38-24.41 200.25-23.83 200.13-23.24 199.69-22.8L199.69-22.8Q199.64-22.17 199.62-21.36 199.59-20.56 199.52-19.73 199.45-18.9 199.25-18.12 199.06-17.33 198.67-16.85L198.67-16.85Q198.62-16.11 198.59-15.36 198.57-14.6 198.57-13.92L198.57-13.92Q198.57-12.84 198.69-11.38 198.81-9.91 199.35-8.94L199.35-8.94Q199.59-8.54 200.3-8.35 201.01-8.15 201.45-8.15L201.45-8.15Q201.99-8.15 202.55-8.33 203.11-8.5 203.35-8.94L203.35-8.94Q203.65-8.89 203.74-8.64 203.84-8.4 204.09-8.25L204.09-8.25Q206.87-9.42 209.65-10.5 212.44-11.57 215.12-12.99L215.12-12.99Q215.51-12.79 215.95-12.79L215.95-12.79Q216.44-12.79 216.93-12.89 217.42-12.99 217.9-12.99L217.9-12.99 218.25-12.99Q218.34-12.7 218.34-12.55Z" opacity="1" transform="matrix(1,0,0,1,0,0)" fill="#fbfbf8" class="wordmark-text-0" data-fill-palette-color="primary" id="text-0"></path></svg></g></svg></g></svg></g></svg></g></svg></g></svg></g></svg></g></svg></g><defs></defs></svg><rect width="320" height="360" fill="none" stroke="none" visibility="hidden"></rect></g></svg></g></svg>